<svg xmlns="http://www.w3.org/2000/svg" viewBox="0 0 192.88 226.92"><defs><style>.cls-1{fill:#007787;}.cls-2{fill:none;stroke-width:3.14px;}.cls-2,.cls-3{stroke:#007787;stroke-miterlimit:10;}.cls-3{fill:#fff;stroke-linecap:round;stroke-width:5.88px;}</style></defs><g id="Ebene_2" data-name="Ebene 2"><g id="Ebene_1-2" data-name="Ebene 1"><ellipse class="cls-1" cx="69.73" cy="113.74" rx="5.21" ry="6.84"/><ellipse class="cls-1" cx="119.79" cy="114.27" rx="5.21" ry="6.84"/><circle class="cls-2" cx="97.08" cy="11.74" r="10.17"/><path class="cls-2" d="M191.31,130.48a94.32,94.32,0,0,1-11.94,46.1q-1.77,3.21-3.8,6.25a94.89,94.89,0,0,1-158.32-.09c-1.34-2-2.61-4.11-3.79-6.25a94.88,94.88,0,1,1,177.85-46Z"/><path class="cls-3" d="M164.57,87.15a78.43,78.43,0,0,1,4.14,7.31"/><path class="cls-3" d="M140.43,62.77a81.43,81.43,0,0,1,14.31,11.86"/><path class="cls-2" d="M122.9,141.79H70.3c-18.62,0-33.86-9.41-33.86-28h0c0-18.62,15.24-27.25,33.86-27.25h52.6c18.62,0,33.86,8.63,33.86,27.25h0C156.76,132.38,141.52,141.79,122.9,141.79Z"/><line class="cls-2" x1="96.77" y1="34.99" x2="96.77" y2="21.48"/><path class="cls-1" d="M152.57,141.4l14.85-9,23.13-14.52-.06-.4c-.19-1.28-.4-2.54-.65-3.79-8.54,5.2-18.92,11.55-26.32,16.07-5.51,3.37-9.37,5.72-9.55,5.82l-4.38,2.35c-7.29-2.28-14.64-4.82-21.85-7.56-6-2.3-10.46-4.14-14-5.63-7.8-3.26-11.35-4.76-17.48-4.62-6,.12-9.44,1.72-15.19,4.38-3.39,1.55-7.61,3.5-13.83,5.87q-8.33,3.19-17,5.68l-1.12.33c-2.11.6-4.22,1.16-6.36,1.7l-4.65-2.5-2.86-1.5h0c-.23-.13-9.44-5-20.07-10.51h0l-11.58-6a.64.64,0,0,0,0,.2c-.06.36-.11.72-.16,1.08,0,.16,0,.31-.06.48-.07.49-.13,1-.19,1.5v0l-.11.9,12.11,6.59L40.05,141.4v38.94L6.74,159.56q.58,2,1.29,3.87c.27.78.56,1.55.85,2.32l35.38,23c24.92,17.9,51.72,18.11,52,18.11,23.63,0,41.57-9.89,52.39-18.2l37.12-24.31c.18-.48.35-1,.52-1.44.54-1.53,1-3.08,1.49-4.64l-35.2,22.08Zm-56.1,39.91a114.63,114.63,0,0,1-39.4-6.95l1.56-4.27a110.52,110.52,0,0,0,75.68,0l1.55,4.27A114.58,114.58,0,0,1,96.47,181.31Zm0-20.44a114.88,114.88,0,0,1-39.4-7l1.56-4.26a110.67,110.67,0,0,0,75.68,0l1.55,4.27A115.05,115.05,0,0,1,96.47,160.87Z"/></g></g></svg>